<?xml version="1.0" encoding="UTF-8"?>
<svg id="_레이어_1" data-name="레이어_1" xmlns="http://www.w3.org/2000/svg" version="1.1" viewBox="0 0 28 28">
  <!-- Generator: Adobe Illustrator 29.8.5, SVG Export Plug-In . SVG Version: 2.1.1 Build 2)  -->
  <defs>
    <style>
      .st0 {
        fill: #fff;
      }
    </style>
  </defs>
  <path class="st0" d="M23.92,9.26c.06-.77.09-1.46.09-2.11,0-1.5-.13-3.03-.37-4.52l-.08-.49-2.5,2.25-12.79,2.53v.21c-.37,5.52-2.79,10.64-6.83,14.44l-.36.34.57.14h0s15.02,3.8,15.02,3.8h.01s.01,0,.01,0c4.86-3.49,8.37-8.35,10.16-14.06l.09-.3-3.21-.51c.08-.57.15-1.15.19-1.73ZM21.36,4.85l1.81-1.63c.19,1.31.29,2.63.29,3.94,0,.59-.03,1.23-.08,1.93l-5.03,2.97.02.18s.34,2.78-1.9,4.42c-.94.69-2.77,1.03-4.89,1.42-1.77.33-3.76.73-5.73,1.31-.34.1-.54.15-.54.15l6.15-4.16c.42.44.97.68,1.55.68.44,0,.89-.14,1.27-.42.46-.34.76-.84.85-1.41.09-.57-.05-1.13-.39-1.6-.7-.95-2.05-1.16-3-.46-.46.34-.76.84-.85,1.41-.07.47.02.94.25,1.35l-6.11,4.36s.61-.74.79-.97c1.28-1.6,1.76-2.81,2.69-4.43,1.06-1.84,1.97-3.43,2.92-4.12,2.23-1.64,4.76-.5,4.78-.49l.16.08,5-4.51ZM11.43,13.66c.06-.42.29-.8.63-1.05.29-.21.62-.31.95-.31.49,0,.98.23,1.29.65.52.71.37,1.72-.34,2.24-.35.25-.77.36-1.19.29-.42-.06-.8-.29-1.05-.63-.25-.34-.36-.77-.29-1.19ZM8.78,7.38l11.48-2.27-4,3.61c-.65-.25-3-.98-5.17.62-1.04.76-1.98,2.4-3.07,4.29-.95,1.65-1.89,3.56-3.22,5.16-.47.57-1.3,1.46-1.96,2.02,1.03-1.12,1.83-2.11,1.96-2.3,2.24-3.19,3.66-7,3.97-11.12ZM16.47,25.25l-14.19-3.58c.82-.67,1.6-1.11,2.99-1.64,2.09-.8,4.48-1.05,6.42-1.41,2.18-.4,4.07-.75,5.11-1.52,2.17-1.59,2.18-4.05,2.13-4.75l4.39-2.59c-.55,5.74-2.97,11.22-6.85,15.5ZM26.22,11.94c-1.51,4.64-4.2,8.68-7.84,11.86,2.73-3.59,4.55-7.82,5.27-12.27l2.57.41Z"/>
</svg>